<svg class="svg-icon" style="width: 1em; height: 1em;vertical-align: middle;fill: currentColor;overflow: hidden;" viewBox="0 0 1024 1024" version="1.1" xmlns="http://www.w3.org/2000/svg"><path d="M901.9 692.2c-29.8-20.7-70.9-38.1-121.9-51.8-21.3-5.7-43.3 6.9-49 28.2-5.7 21.3 6.9 43.3 28.2 49 90.9 24.5 120.3 55.7 120.3 67 0 10.7-24.4 35.8-89.8 57.8-72 24.2-170.1 37.6-276.2 37.6-106.3 0-205-13.4-277.9-37.6-74.5-24.8-91.2-50.7-91.2-57.8 0-5.2 7.3-15.4 23.6-26.5 22.4-15.3 56.5-29.3 98.8-40.5 21.3-5.7 34.1-27.6 28.4-48.9-5.7-21.3-27.6-34.1-48.9-28.4C194.7 654 153.2 671.4 123 692c-48.4 33-58.5 68.6-58.5 92.6 0 38.8 25.3 93.5 146 133.7C291.3 945.2 399 960 513.6 960c114.5 0 221.7-14.8 301.7-41.7 119.3-40.1 144.3-94.8 144.3-133.6-0.1-24.1-10-59.5-57.7-92.5zM673.3 368c0-89-72.4-161.3-161.3-161.3-89 0-161.3 72.4-161.3 161.3S423 529.3 512 529.3c89 0 161.3-72.4 161.3-161.3z m-242.6 0c0-44.8 36.5-81.3 81.3-81.3s81.3 36.5 81.3 81.3-36.5 81.3-81.3 81.3-81.3-36.5-81.3-81.3z"  /><path d="M349.1 645.6c66.8 81.6 132.7 144.1 135.5 146.7 7.7 7.3 17.6 10.9 27.5 10.9 9.9 0 19.8-3.6 27.5-10.9 2.8-2.6 68.6-65.1 135.5-146.7 39.8-48.6 71.6-93.9 94.6-134.7C800.8 455.5 816 408.8 816 368c0-81.2-31.6-157.5-89-214.9S593.2 64 512 64c-81.2 0-157.5 31.6-214.9 89-57.4 57.4-89 133.7-89 214.9 0 40.8 15.2 87.5 46.4 142.9 23 40.9 54.8 86.2 94.6 134.8zM512 144c123.5 0 224 100.5 224 224 0 49.4-43.5 129.8-122.4 226.3-38.2 46.6-76.7 87.4-101.6 112.7-24.8-25.2-63-65.6-101-112-79.3-96.9-123-177.5-123-227 0-123.5 100.5-224 224-224z"  /></svg>