<svg width="10" height="11" viewBox="0 0 10 11" fill="none" xmlns="http://www.w3.org/2000/svg">
<path d="M4.27699 2.95043L2.58549 1.10405C2.39049 0.891276 2.03299 0.892222 1.80649 1.10688L0.415494 2.42465C0.00149414 2.81662 -0.117006 3.39867 0.122494 3.86535C1.5533 6.66683 3.94252 8.92936 6.90299 10.2863C7.39599 10.5128 8.01099 10.4008 8.42499 10.0088L9.82899 8.67872C10.0565 8.46359 10.057 8.12362 9.82999 7.93922L7.86999 6.34816C7.66499 6.18173 7.34649 6.20348 7.14099 6.39828L6.45899 7.04416C6.42408 7.07877 6.37812 7.10158 6.32817 7.10909C6.27822 7.11661 6.22704 7.10842 6.18249 7.08577C5.06772 6.47871 4.14299 5.6031 3.50249 4.54811C3.47851 4.50591 3.46982 4.45744 3.47777 4.41012C3.48572 4.36281 3.50986 4.31926 3.54649 4.28617L4.22649 3.64265C4.43249 3.4469 4.45499 3.14429 4.27699 2.94996V2.95043Z" fill="#A56FFF"/>
</svg>
