<svg width="0" height="0" class="hidden">
  <symbol xmlns="http://www.w3.org/2000/svg" viewBox="0 0 48 48" id="icons8-телефон">
    <path  d="M13,42h22c3.866,0,7-3.134,7-7V13c0-3.866-3.134-7-7-7H13c-3.866,0-7,3.134-7,7v22	C6,38.866,9.134,42,13,42z"></path>
    <path  d="M35.45,31.041l-4.612-3.051c-0.563-0.341-1.267-0.347-1.836-0.017c0,0,0,0-1.978,1.153	c-0.265,0.154-0.52,0.183-0.726,0.145c-0.262-0.048-0.442-0.191-0.454-0.201c-1.087-0.797-2.357-1.852-3.711-3.205	c-1.353-1.353-2.408-2.623-3.205-3.711c-0.009-0.013-0.153-0.193-0.201-0.454c-0.037-0.206-0.009-0.46,0.145-0.726	c1.153-1.978,1.153-1.978,1.153-1.978c0.331-0.569,0.324-1.274-0.017-1.836l-3.051-4.612c-0.378-0.571-1.151-0.722-1.714-0.332	c0,0-1.445,0.989-1.922,1.325c-0.764,0.538-1.01,1.356-1.011,2.496c-0.002,1.604,1.38,6.629,7.201,12.45l0,0l0,0l0,0l0,0	c5.822,5.822,10.846,7.203,12.45,7.201c1.14-0.001,1.958-0.248,2.496-1.011c0.336-0.477,1.325-1.922,1.325-1.922	C36.172,32.192,36.022,31.419,35.45,31.041z"></path>
  </symbol>
  <symbol xmlns="http://www.w3.org/2000/svg" viewBox="0 0 40 40" id="instagram_logo">
    <path d="M30.5,38.5c4.418,0,8-3.582,8-8v-21c0-4.418-3.582-8-8-8h-21c-4.418,0-8,3.582-8,8v21 c0,4.418,3.582,8,8,8H30.5z"></path>
    <path  d="M3.4,4.331C2.217,5.726,1.5,7.528,1.5,9.5v21c0,4.418,3.582,8,8,8h21c4.418,0,8-3.582,8-8v-21 c0-0.503-0.052-0.992-0.141-1.469C32.135,4.22,24.832,2,17,2C12.229,2,7.657,2.832,3.4,4.331z"></path>
    <path  d="M1.505,9.404C1.504,9.437,1.5,9.468,1.5,9.5v21c0,4.418,3.582,8,8,8h21c4.418,0,8-3.582,8-8V12.897 C32.439,8.56,25.021,6,17,6C11.465,6,6.22,7.226,1.505,9.404z"></path>
    <path  d="M1.5,13.88V30.5c0,4.418,3.582,8,8,8h21c4.418,0,8-3.582,8-8V17.981C32.724,13.013,25.217,10,17,10 C11.394,10,6.124,11.414,1.5,13.88z"></path>
    <path  d="M17,14c-5.705,0-11.014,1.664-15.5,4.509V30.5c0,4.418,3.582,8,8,8h21c4.418,0,8-3.582,8-8v-6.935 C33.194,17.698,25.534,14,17,14z"></path>
    <path  d="M17,18c-5.861,0-11.237,2.033-15.5,5.411V30.5c0,4.418,3.582,8,8,8h21c4.418,0,8-3.582,8-8v-0.238 C34.143,22.925,26.152,18,17,18z"></path>
    <path  d="M17,22c-6.145,0-11.66,2.651-15.5,6.859V30.5c0,4.418,3.582,8,8,8h21c2.465,0,4.668-1.117,6.136-2.87 C33.648,27.674,25.999,22,17,22z"></path>
    <path  d="M30.5,38.5c0.957,0,1.87-0.177,2.721-0.485C31.087,31.065,24.649,26,17,26 c-6.186,0-11.592,3.309-14.566,8.248C3.778,36.777,6.437,38.5,9.5,38.5H30.5z"></path>
    <path  d="M17,30c-5.137,0-9.573,2.984-11.684,7.309C6.535,38.06,7.964,38.5,9.5,38.5h19.683 C27.35,33.542,22.595,30,17,30z"></path>
    <path  d="M17,34c-3.319,0-6.193,1.813-7.753,4.487C9.332,38.49,9.415,38.5,9.5,38.5h15.26 C23.203,35.818,20.324,34,17,34z"></path>
    <path  d="M31,2c3.86,0,7,3.14,7,7v22c0,3.86-3.14,7-7,7H9c-3.86,0-7-3.14-7-7V9c0-3.86,3.14-7,7-7H31 M31,1H9 C4.582,1,1,4.582,1,9v22c0,4.418,3.582,8,8,8h22c4.418,0,8-3.582,8-8V9C39,4.582,35.418,1,31,1L31,1z"></path>
    <path  d="M27.5 11A1.5 1.5 0 1 0 27.5 14A1.5 1.5 0 1 0 27.5 11Z"></path>
    <path fill="none" stroke="#fff" stroke-width="2" d="M20 14A6 6 0 1 0 20 26A6 6 0 1 0 20 14Z"></path>
    <path fill="none" stroke="#fff" stroke-width="2" d="M33,14.5c0-4.142-3.358-7.5-7.5-7.5 c-2.176,0-8.824,0-11,0C10.358,7,7,10.358,7,14.5c0,2.176,0,8.824,0,11c0,4.142,3.358,7.5,7.5,7.5c2.176,0,8.824,0,11,0 c4.142,0,7.5-3.358,7.5-7.5C33,23.324,33,16.676,33,14.5z"></path>
  </symbol>
  <symbol xmlns="http://www.w3.org/2000/svg" viewBox="0 0 48 48" id="javascript">
    <path fill="#ffd600" d="M6,42V6h36v36H6z"></path>
    <path fill="#000001" d="M29.538 32.947c.692 1.124 1.444 2.201 3.037 2.201 1.338 0 2.04-.665 2.04-1.585 0-1.101-.726-1.492-2.198-2.133l-.807-.344c-2.329-.988-3.878-2.226-3.878-4.841 0-2.41 1.845-4.244 4.728-4.244 2.053 0 3.528.711 4.592 2.573l-2.514 1.607c-.553-.988-1.151-1.377-2.078-1.377-.946 0-1.545.597-1.545 1.377 0 .964.6 1.354 1.985 1.951l.807.344C36.452 29.645 38 30.839 38 33.523 38 36.415 35.716 38 32.65 38c-2.999 0-4.702-1.505-5.65-3.368L29.538 32.947zM17.952 33.029c.506.906 1.275 1.603 2.381 1.603 1.058 0 1.667-.418 1.667-2.043V22h3.333v11.101c0 3.367-1.953 4.899-4.805 4.899-2.577 0-4.437-1.746-5.195-3.368L17.952 33.029z"></path>
  </symbol>
  <symbol xmlns="http://www.w3.org/2000/svg" xmlns:xlink="http://www.w3.org/1999/xlink" viewBox="0 0 48 48" id="3440906-direction-location-map-marker-navigation-pin_107531">
    <defs>
      <linearGradient gradientUnits="userSpaceOnUse" id="linear-gradient" x1="12.22" x2="37.03" y1="24" y2="24">
        <stop offset="0" stop-color="#00cfff"></stop>
        <stop offset="1" stop-color="#00afd6"></stop>
      </linearGradient>
    </defs>
    <title></title>
    <g id="icons">
      <g id="Layer_3">
        <path d="M18.72,8.31a10.79,10.79,0,0,0-5.17,5.24A12.74,12.74,0,0,0,14.7,26.81l9.93,14.25,9.92-14.25A12.33,12.33,0,0,0,37,19.36C37,10.6,28,4,18.72,8.31Zm6.08,15.2A4.51,4.51,0,1,1,29.3,19,4.51,4.51,0,0,1,24.8,23.51Z"></path>
      </g>
    </g>
  </symbol>
  <symbol xmlns="http://www.w3.org/2000/svg" viewBox="0 0 48 48" id="css3">
    <path  d="M41,5H7l3,34l14,4l14-4L41,5L41,5z"></path>
    <path  d="M24 8L24 39.9 35.2 36.7 37.7 8z"></path>
    <path  d="M33.1 13L24 13 24 17 28.9 17 28.6 21 24 21 24 25 28.4 25 28.1 29.5 24 30.9 24 35.1 31.9 32.5 32.6 21 32.6 21z"></path>
    <path  d="M24,13v4h-8.9l-0.3-4H24z M19.4,21l0.2,4H24v-4H19.4z M19.8,27h-4l0.3,5.5l7.9,2.6v-4.2l-4.1-1.4L19.8,27z"></path>
  </symbol>
  <symbol xmlns="http://www.w3.org/2000/svg" viewBox="0 0 30 30" id="github">
    <path d="M15,3C8.373,3,3,8.373,3,15c0,5.623,3.872,10.328,9.092,11.63C12.036,26.468,12,26.28,12,26.047v-2.051 c-0.487,0-1.303,0-1.508,0c-0.821,0-1.551-0.353-1.905-1.009c-0.393-0.729-0.461-1.844-1.435-2.526 c-0.289-0.227-0.069-0.486,0.264-0.451c0.615,0.174,1.125,0.596,1.605,1.222c0.478,0.627,0.703,0.769,1.596,0.769 c0.433,0,1.081-0.025,1.691-0.121c0.328-0.833,0.895-1.6,1.588-1.962c-3.996-0.411-5.903-2.399-5.903-5.098 c0-1.162,0.495-2.286,1.336-3.233C9.053,10.647,8.706,8.73,9.435,8c1.798,0,2.885,1.166,3.146,1.481C13.477,9.174,14.461,9,15.495,9 c1.036,0,2.024,0.174,2.922,0.483C18.675,9.17,19.763,8,21.565,8c0.732,0.731,0.381,2.656,0.102,3.594 c0.836,0.945,1.328,2.066,1.328,3.226c0,2.697-1.904,4.684-5.894,5.097C18.199,20.49,19,22.1,19,23.313v2.734 c0,0.104-0.023,0.179-0.035,0.268C23.641,24.676,27,20.236,27,15C27,8.373,21.627,3,15,3z"></path>
  </symbol>
  <symbol xmlns="http://www.w3.org/2000/svg" viewBox="0 0 48 48" id="html_5">
    <polygon fill="#e7a42b" points="8,5 42,5 38,39 25,43 11,39"></polygon>
    <polygon fill="#f2bf22" points="38.63,8 35.25,36.71 25,39.86 25,8"></polygon>
    <polygon fill="#faf9f8" points="25,21 26,23 25,25 15.79,25 16.64,12 25,12 26,14 25,16 21.03,16 20.7,21"></polygon>
    <polygon fill="#ebebeb" points="24.9,32.57 25,32.54 26,35 25,36.72 24.94,36.74 16.61,34.36 16.05,28 20.07,28 20.35,31.27"></polygon>
    <polygon fill="#fff" points="34.07,21 32.5,34.42 25,36.72 25,32.54 28.83,31.36 29.57,25 25,25 25,21"></polygon>
    <polygon fill="#fff" points="34.92,18 30.93,18 30.67,16 25,16 25,12 34.13,12 34.3,13.26"></polygon>
  </symbol>
  <symbol xmlns="http://www.w3.org/2000/svg" viewBox="0 0 48 48" id="icons8-почта">
    <path  d="M34,42H14c-4.411,0-8-3.589-8-8V14c0-4.411,3.589-8,8-8h20c4.411,0,8,3.589,8,8v20 C42,38.411,38.411,42,34,42z"></path>
    <path  d="M35.926,17.488L29.414,24l6.511,6.511C35.969,30.347,36,30.178,36,30V18 C36,17.822,35.969,17.653,35.926,17.488z M26.688,23.899l7.824-7.825C34.347,16.031,34.178,16,34,16H14 c-0.178,0-0.347,0.031-0.512,0.074l7.824,7.825C22.795,25.38,25.205,25.38,26.688,23.899z M24,27.009 c-1.44,0-2.873-0.542-3.99-1.605l-6.522,6.522C13.653,31.969,13.822,32,14,32h20c0.178,0,0.347-0.031,0.512-0.074l-6.522-6.522 C26.873,26.467,25.44,27.009,24,27.009z M12.074,17.488C12.031,17.653,12,17.822,12,18v12c0,0.178,0.031,0.347,0.074,0.512 L18.586,24L12.074,17.488z"></path>
  </symbol>
</svg>