<svg width="0" height="0" class="hidden">
  <symbol xmlns="http://www.w3.org/2000/svg" viewBox="0 0 12 12" id="github">
    <path fill-rule="evenodd" clip-rule="evenodd" d="M6 0C2.685 0 0 2.53908 0 5.67391C0 8.18462 1.7175 10.3052 4.1025 11.057C4.4025 11.1067 4.515 10.9365 4.515 10.7875C4.515 10.6528 4.5075 10.206 4.5075 9.73076C3 9.99318 2.61 9.38323 2.49 9.06408C2.4225 8.90095 2.13 8.39739 1.875 8.26264C1.665 8.15625 1.365 7.89383 1.8675 7.88674C2.34 7.87965 2.6775 8.2981 2.79 8.46832C3.33 9.32649 4.1925 9.08535 4.5375 8.93641C4.59 8.56761 4.7475 8.31938 4.92 8.17753C3.585 8.03568 2.19 7.5463 2.19 5.37603C2.19 4.75899 2.4225 4.24834 2.805 3.85117C2.745 3.70932 2.535 3.12774 2.865 2.34758C2.865 2.34758 3.3675 2.19864 4.515 2.92916C4.995 2.80149 5.505 2.73766 6.015 2.73766C6.525 2.73766 7.035 2.80149 7.515 2.92916C8.6625 2.19155 9.165 2.34758 9.165 2.34758C9.495 3.12774 9.285 3.70932 9.225 3.85117C9.6075 4.24834 9.84 4.7519 9.84 5.37603C9.84 7.5534 8.4375 8.03568 7.1025 8.17753C7.32 8.35484 7.5075 8.69527 7.5075 9.2272C7.5075 9.98609 7.5 10.596 7.5 10.7875C7.5 10.9365 7.6125 11.1138 7.9125 11.057C9.10359 10.6768 10.1386 9.95284 10.8718 8.98718C11.6051 8.02152 11.9996 6.86273 12 5.67391C12 2.53908 9.315 0 6 0Z" ></path>
  </symbol>
  <symbol version="1.1" xmlns="http://www.w3.org/2000/svg" viewBox="0 0 1024 1024" id="adress">
    <path d="M901.9 692.2c-29.8-20.7-70.9-38.1-121.9-51.8-21.3-5.7-43.3 6.9-49 28.2-5.7 21.3 6.9 43.3 28.2 49 90.9 24.5 120.3 55.7 120.3 67 0 10.7-24.4 35.8-89.8 57.8-72 24.2-170.1 37.6-276.2 37.6-106.3 0-205-13.4-277.9-37.6-74.5-24.8-91.2-50.7-91.2-57.8 0-5.2 7.3-15.4 23.6-26.5 22.4-15.3 56.5-29.3 98.8-40.5 21.3-5.7 34.1-27.6 28.4-48.9-5.7-21.3-27.6-34.1-48.9-28.4C194.7 654 153.2 671.4 123 692c-48.4 33-58.5 68.6-58.5 92.6 0 38.8 25.3 93.5 146 133.7C291.3 945.2 399 960 513.6 960c114.5 0 221.7-14.8 301.7-41.7 119.3-40.1 144.3-94.8 144.3-133.6-0.1-24.1-10-59.5-57.7-92.5zM673.3 368c0-89-72.4-161.3-161.3-161.3-89 0-161.3 72.4-161.3 161.3S423 529.3 512 529.3c89 0 161.3-72.4 161.3-161.3z m-242.6 0c0-44.8 36.5-81.3 81.3-81.3s81.3 36.5 81.3 81.3-36.5 81.3-81.3 81.3-81.3-36.5-81.3-81.3z"></path>
    <path d="M349.1 645.6c66.8 81.6 132.7 144.1 135.5 146.7 7.7 7.3 17.6 10.9 27.5 10.9 9.9 0 19.8-3.6 27.5-10.9 2.8-2.6 68.6-65.1 135.5-146.7 39.8-48.6 71.6-93.9 94.6-134.7C800.8 455.5 816 408.8 816 368c0-81.2-31.6-157.5-89-214.9S593.2 64 512 64c-81.2 0-157.5 31.6-214.9 89-57.4 57.4-89 133.7-89 214.9 0 40.8 15.2 87.5 46.4 142.9 23 40.9 54.8 86.2 94.6 134.8zM512 144c123.5 0 224 100.5 224 224 0 49.4-43.5 129.8-122.4 226.3-38.2 46.6-76.7 87.4-101.6 112.7-24.8-25.2-63-65.6-101-112-79.3-96.9-123-177.5-123-227 0-123.5 100.5-224 224-224z"></path>
  </symbol>
  <symbol xmlns="http://www.w3.org/2000/svg" viewBox="0 0 10 11" id="phone">
    <path d="M4.27699 2.95043L2.58549 1.10405C2.39049 0.891276 2.03299 0.892222 1.80649 1.10688L0.415494 2.42465C0.00149414 2.81662 -0.117006 3.39867 0.122494 3.86535C1.5533 6.66683 3.94252 8.92936 6.90299 10.2863C7.39599 10.5128 8.01099 10.4008 8.42499 10.0088L9.82899 8.67872C10.0565 8.46359 10.057 8.12362 9.82999 7.93922L7.86999 6.34816C7.66499 6.18173 7.34649 6.20348 7.14099 6.39828L6.45899 7.04416C6.42408 7.07877 6.37812 7.10158 6.32817 7.10909C6.27822 7.11661 6.22704 7.10842 6.18249 7.08577C5.06772 6.47871 4.14299 5.6031 3.50249 4.54811C3.47851 4.50591 3.46982 4.45744 3.47777 4.41012C3.48572 4.36281 3.50986 4.31926 3.54649 4.28617L4.22649 3.64265C4.43249 3.4469 4.45499 3.14429 4.27699 2.94996V2.95043Z"></path>
  </symbol>
  <symbol version="1.1" id="email" xmlns="http://www.w3.org/2000/svg" xmlns:xlink="http://www.w3.org/1999/xlink" x="0px" y="0px" enable-background="new 0 0 64 64" xml:space="preserve" viewBox="0 0 64 64">
    <path id="Mail" d="M58.0034485,8H5.9965506c-3.3136795,0-5.9999995,2.6862001-5.9999995,6v36c0,3.3137016,2.6863203,6,5.9999995,6
	h52.006897c3.3137016,0,6-2.6862984,6-6V14C64.0034485,10.6862001,61.3171501,8,58.0034485,8z M62.0034485,49.1108017
	L43.084549,30.1919994l18.9188995-12.0555992V49.1108017z M5.9965506,10h52.006897c2.2056007,0,4,1.7943001,4,4v1.7664003
	L34.4677505,33.3134003c-1.4902,0.9492989-3.3935013,0.9199982-4.8495998-0.0703011L1.9965508,14.4694996V14
	C1.9965508,11.7943001,3.7910507,10,5.9965506,10z M1.9965508,16.8852005L21.182251,29.9251003L1.9965508,49.1108017V16.8852005z
	 M58.0034485,54H5.9965506c-1.6473999,0-3.0638998-1.0021019-3.6760998-2.4278984l20.5199013-20.5200024l5.6547985,3.843401
	c1.0859013,0.7383003,2.3418007,1.1083984,3.5995998,1.1083984c1.1953011,0,2.3925018-0.3339996,3.4463005-1.0048981
	l5.8423996-3.7230015l20.2961006,20.2961025C61.0673485,52.9978981,59.6508713,54,58.0034485,54z"></path>
    <g></g>
    <g></g>
    <g></g>
    <g></g>
    <g></g>
    <g></g>
    <g></g>
    <g></g>
    <g></g>
    <g></g>
    <g></g>
    <g></g>
    <g></g>
    <g></g>
    <g></g>
  </symbol>
  <symbol id="rs_school_js" xmlns="http://www.w3.org/2000/svg" xmlns:xlink="http://www.w3.org/1999/xlink" viewBox="0 0 552.8 205.3">
    <title>rs_school_js</title>
    <path d="M285.4 68l26.3-1.7c.6 4.3 1.7 7.5 3.5 9.8 2.9 3.6 6.9 5.4 12.2 5.4 3.9 0 7-.9 9.1-2.8 2-1.5 3.2-3.9 3.2-6.4 0-2.4-1.1-4.7-3-6.2-2-1.8-6.7-3.6-14.1-5.2-12.1-2.7-20.8-6.3-25.9-10.9-5.1-4.3-8-10.6-7.8-17.3 0-4.6 1.4-9.2 4-13 3-4.3 7.1-7.7 12-9.6 5.3-2.3 12.7-3.5 22-3.5 11.4 0 20.1 2.1 26.1 6.4 6 4.2 9.6 11 10.7 20.3l-26 1.5c-.7-4-2.1-6.9-4.4-8.8s-5.3-2.8-9.2-2.8c-3.2 0-5.6.7-7.2 2-1.5 1.2-2.5 3-2.4 5 0 1.5.8 2.9 2 3.8 1.3 1.2 4.4 2.3 9.3 3.3 12.1 2.6 20.7 5.2 26 7.9 5.3 2.7 9.1 6 11.4 9.9 2.4 4 3.6 8.6 3.5 13.3 0 5.6-1.6 11.2-4.8 15.9-3.3 4.9-7.9 8.7-13.3 11-5.7 2.5-12.9 3.8-21.5 3.8-15.2 0-25.7-2.9-31.6-8.8S286.1 77 285.4 68zM6.3 97.6V8.2h46.1c8.5 0 15.1.7 19.6 2.2 4.4 1.4 8.3 4.3 10.9 8.2 2.9 4.3 4.3 9.3 4.2 14.5.3 8.8-4.2 17.2-11.9 21.6-3 1.7-6.3 2.9-9.7 3.5 2.5.7 5 1.9 7.2 3.3 1.7 1.4 3.1 3 4.4 4.7 1.5 1.7 2.8 3.6 3.9 5.6l13.4 25.9H63L48.2 70.2c-1.9-3.5-3.5-5.8-5-6.9-2-1.4-4.4-2.1-6.8-2.1H34v36.3H6.3zM34 44.4h11.7c2.5-.2 4.9-.6 7.3-1.2 1.8-.3 3.4-1.3 4.5-2.8 2.7-3.6 2.3-8.7-1-11.8-1.8-1.5-5.3-2.3-10.3-2.3H34v18.1zM0 174.2l26.3-1.7c.6 4.3 1.7 7.5 3.5 9.8 2.8 3.6 6.9 5.5 12.2 5.5 3.9 0 7-.9 9.1-2.8 2-1.6 3.2-3.9 3.2-6.4 0-2.4-1.1-4.7-3-6.2-2-1.8-6.7-3.6-14.2-5.2-12.1-2.7-20.8-6.3-25.9-10.9-5.1-4.3-8-10.6-7.8-17.3 0-4.6 1.4-9.2 4-13 3-4.3 7.1-7.7 12-9.6 5.3-2.3 12.7-3.5 22-3.5 11.4 0 20.1 2.1 26.1 6.4s9.5 11 10.6 20.3l-26 1.5c-.7-4-2.1-6.9-4.4-8.8-2.2-1.9-5.3-2.8-9.2-2.7-3.2 0-5.6.7-7.2 2.1-1.6 1.2-2.5 3-2.4 5 0 1.5.8 2.9 2 3.8 1.3 1.2 4.4 2.3 9.3 3.3 12.1 2.6 20.7 5.2 26 7.9 5.3 2.7 9.1 6 11.4 9.9 2.4 4 3.6 8.6 3.6 13.2 0 5.6-1.7 11.1-4.8 15.8-3.3 4.9-7.9 8.7-13.3 11-5.7 2.5-12.9 3.8-21.5 3.8-15.2 0-25.7-2.9-31.6-8.8-5.9-6-9.2-13.4-10-22.4z"></path>
    <path d="M133 167.2l24.2 7.3c-1.3 6.1-4 11.9-7.7 17-3.4 4.5-7.9 8-13 10.3-5.2 2.3-11.8 3.5-19.8 3.5-9.7 0-17.7-1.4-23.8-4.2-6.2-2.8-11.5-7.8-16-14.9-4.5-7.1-6.7-16.2-6.7-27.3 0-14.8 3.9-26.2 11.8-34.1s19-11.9 33.4-11.9c11.3 0 20.1 2.3 26.6 6.8 6.4 4.6 11.2 11.6 14.4 21l-24.4 5.4c-.6-2.1-1.5-4.2-2.7-6-1.5-2.1-3.4-3.7-5.7-4.9-2.3-1.2-4.9-1.7-7.5-1.7-6.3 0-11.1 2.5-14.4 7.6-2.5 3.7-3.8 9.6-3.8 17.6 0 9.9 1.5 16.7 4.5 20.4 3 3.7 7.2 5.5 12.7 5.5 5.3 0 9.3-1.5 12-4.4 2.7-3.1 4.7-7.4 5.9-13zm56.5-52.8h27.6v31.3h30.2v-31.3h27.8v89.4h-27.8v-36.2h-30.2v36.2h-27.6v-89.4z"></path>
    <path d="M271.3 159.1c0-14.6 4.1-26 12.2-34.1 8.1-8.1 19.5-12.2 34-12.2 14.9 0 26.3 4 34.4 12S364 144 364 158.4c0 10.5-1.8 19-5.3 25.7-3.4 6.6-8.7 12-15.2 15.6-6.7 3.7-15 5.6-24.9 5.6-10.1 0-18.4-1.6-25-4.8-6.8-3.4-12.4-8.7-16.1-15.2-4.1-7-6.2-15.7-6.2-26.2zm27.6.1c0 9 1.7 15.5 5 19.5 3.3 3.9 7.9 5.9 13.7 5.9 5.9 0 10.5-1.9 13.8-5.8s4.9-10.8 4.9-20.8c0-8.4-1.7-14.6-5.1-18.4-3.4-3.9-8-5.8-13.8-5.8-5.1-.2-10 2-13.4 5.9-3.4 3.9-5.1 10.4-5.1 19.5zm93.4-.1c0-14.6 4.1-26 12.2-34.1 8.1-8.1 19.5-12.2 34-12.2 14.9 0 26.4 4 34.4 12S485 144 485 158.4c0 10.5-1.8 19-5.3 25.7-3.4 6.6-8.7 12-15.2 15.6-6.7 3.7-15 5.6-24.9 5.6-10.1 0-18.4-1.6-25-4.8-6.8-3.4-12.4-8.7-16.1-15.2-4.1-7-6.2-15.7-6.2-26.2zm27.6.1c0 9 1.7 15.5 5 19.5 3.3 3.9 7.9 5.9 13.7 5.9 5.9 0 10.5-1.9 13.8-5.8 3.3-3.9 4.9-10.8 4.9-20.8 0-8.4-1.7-14.6-5.1-18.4-3.4-3.9-8-5.8-13.8-5.8-5.1-.2-10.1 2-13.4 5.9-3.4 3.9-5.1 10.4-5.1 19.5z"></path>
    <path d="M482.1 114.4h27.6v67.4h43.1v22H482v-89.4z"></path>
    <ellipse transform="rotate(-37.001 420.46 67.88)" cx="420.5" cy="67.9" rx="63" ry="51.8"></ellipse>
    <defs>
      <ellipse id="SVGID_1_" transform="rotate(-37.001 420.46 67.88)" cx="420.5" cy="67.9" rx="63" ry="51.8"></ellipse>
    </defs>
    <clipPath id="SVGID_2_">
      <use xlink:href="#SVGID_1_" overflow="visible"></use>
    </clipPath>
    <g>
      <path transform="rotate(-37.001 420.82 68.353)" d="M330.9-14.2h179.8v165.1H330.9z"></path>
      <g id="Layer_2_1_">
        <defs>
          <path id="SVGID_3_" transform="rotate(-37.001 420.82 68.353)" d="M330.9-14.2h179.8v165.1H330.9z"></path>
        </defs>
        <clipPath id="SVGID_4_">
          <use xlink:href="#SVGID_3_" overflow="visible"></use>
        </clipPath>
        <g id="Layer_1-2">
          <ellipse transform="rotate(-37.001 420.46 67.88)" cx="420.5" cy="67.9" rx="63" ry="51.8"></ellipse>
          <defs>
            <ellipse id="SVGID_5_" transform="rotate(-37.001 420.46 67.88)" cx="420.5" cy="67.9" rx="63" ry="51.8"></ellipse>
          </defs>
          <clipPath id="SVGID_6_">
            <use xlink:href="#SVGID_5_" overflow="visible"></use>
          </clipPath>
          <g>
            <path transform="rotate(-37 420.799 68.802)" d="M357.8 17h125.9v103.7H357.8z"></path>
            <defs>
              <path id="SVGID_7_" transform="rotate(-37 420.799 68.802)" d="M357.8 17h125.9v103.7H357.8z"></path>
            </defs>
            <clipPath id="SVGID_8_">
              <use xlink:href="#SVGID_7_" overflow="visible"></use>
            </clipPath>
            <g>
              <ellipse transform="rotate(-37.001 420.46 67.88)" cx="420.5" cy="67.9" rx="63" ry="51.8"></ellipse>
            </g>
            <path transform="rotate(-37 420.799 68.802)" d="M357.8 17h125.9v103.7H357.8z"></path>
            <ellipse transform="rotate(-37.001 420.46 67.88)" cx="420.5" cy="67.9" rx="63" ry="51.8"></ellipse>
            <path transform="rotate(-37 420.799 68.802)" d="M357.8 17h125.9v103.7H357.8z"></path>
            <defs>
              <path id="SVGID_9_" transform="rotate(-37 420.799 68.802)" d="M357.8 17h125.9v103.7H357.8z"></path>
            </defs>
            <clipPath id="SVGID_10_">
              <use xlink:href="#SVGID_9_" overflow="visible"></use>
            </clipPath>
            <g>
              <ellipse transform="rotate(-37.001 420.46 67.88)" cx="420.5" cy="67.9" rx="63" ry="51.8"></ellipse>
            </g>
            <path transform="rotate(-37 420.799 68.802)" d="M357.8 17h125.9v103.7H357.8z"></path>
            <path transform="rotate(-37.001 420.82 68.353)" d="M330.9-14.2h179.8v165.1H330.9z"></path>
          </g>
          <ellipse transform="rotate(-37.001 420.46 67.88)" cx="420.5" cy="67.9" rx="63" ry="51.8"></ellipse>
          <path d="M392.4 61.3l10-7 12.3 17.5c2.1 2.8 3.7 5.8 4.9 9.1.7 2.5.5 5.2-.5 7.6-1.3 3-3.4 5.5-6.2 7.3-3.3 2.3-6.1 3.6-8.5 4-2.3.4-4.7 0-6.9-1-2.4-1.2-4.5-2.9-6.1-5.1l8.6-8c.7 1.1 1.6 2.1 2.6 2.9.7.5 1.5.8 2.4.8.7 0 1.4-.3 1.9-.7 1-.6 1.7-1.8 1.6-3-.3-1.7-1-3.4-2.1-4.7l-14-19.7zm30 11.1l9.1-7.2c1 1.2 2.3 2.1 3.7 2.6 2 .6 4.1.2 5.8-1.1 1.2-.8 2.2-1.9 2.6-3.3.6-1.8-.4-3.8-2.2-4.4-.3-.1-.6-.2-.9-.2-1.2-.1-3.3.4-6.4 1.7-5.1 2.1-9.1 2.9-12.1 2.6-2.9-.3-5.6-1.8-7.2-4.3-1.2-1.7-1.8-3.7-1.9-5.7 0-2.3.6-4.6 1.9-6.5 1.9-2.7 4.2-5 7-6.8 4.2-2.9 7.9-4.3 11.1-4.3 3.2 0 6.2 1.5 9 4.6l-9 7.1c-1.8-2.3-5.2-2.8-7.5-1l-.3.3c-1 .6-1.7 1.5-2.1 2.6-.3.8-.1 1.7.4 2.4.4.5 1 .9 1.7.9.8.1 2.2-.3 4.2-1.2 5-2.1 8.8-3.3 11.4-3.7 2.2-.4 4.5-.2 6.6.7 1.9.8 3.5 2.2 4.6 3.9 1.4 2 2.2 4.4 2.3 6.9.1 2.6-.6 5.1-2 7.3-1.8 2.7-4.1 5-6.8 6.8-5.5 3.8-10 5.4-13.6 4.8-3.9-.6-7.1-2.6-9.4-5.5z"></path>
        </g>
      </g>
    </g>
  </symbol>
</svg>
