<svg width="0" height="0" class="hidden">
  <symbol xmlns="http://www.w3.org/2000/svg" viewBox="0 0 12 12" id="github">
    <path fill-rule="evenodd" clip-rule="evenodd" d="M6 0C2.685 0 0 2.53908 0 5.67391C0 8.18462 1.7175 10.3052 4.1025 11.057C4.4025 11.1067 4.515 10.9365 4.515 10.7875C4.515 10.6528 4.5075 10.206 4.5075 9.73076C3 9.99318 2.61 9.38323 2.49 9.06408C2.4225 8.90095 2.13 8.39739 1.875 8.26264C1.665 8.15625 1.365 7.89383 1.8675 7.88674C2.34 7.87965 2.6775 8.2981 2.79 8.46832C3.33 9.32649 4.1925 9.08535 4.5375 8.93641C4.59 8.56761 4.7475 8.31938 4.92 8.17753C3.585 8.03568 2.19 7.5463 2.19 5.37603C2.19 4.75899 2.4225 4.24834 2.805 3.85117C2.745 3.70932 2.535 3.12774 2.865 2.34758C2.865 2.34758 3.3675 2.19864 4.515 2.92916C4.995 2.80149 5.505 2.73766 6.015 2.73766C6.525 2.73766 7.035 2.80149 7.515 2.92916C8.6625 2.19155 9.165 2.34758 9.165 2.34758C9.495 3.12774 9.285 3.70932 9.225 3.85117C9.6075 4.24834 9.84 4.7519 9.84 5.37603C9.84 7.5534 8.4375 8.03568 7.1025 8.17753C7.32 8.35484 7.5075 8.69527 7.5075 9.2272C7.5075 9.98609 7.5 10.596 7.5 10.7875C7.5 10.9365 7.6125 11.1138 7.9125 11.057C9.10359 10.6768 10.1386 9.95284 10.8718 8.98718C11.6051 8.02152 11.9996 6.86273 12 5.67391C12 2.53908 9.315 0 6 0Z" ></path>
  </symbol>
  <symbol version="1.1" xmlns="http://www.w3.org/2000/svg" viewBox="0 0 1024 1024" id="adress">
    <path d="M901.9 692.2c-29.8-20.7-70.9-38.1-121.9-51.8-21.3-5.7-43.3 6.9-49 28.2-5.7 21.3 6.9 43.3 28.2 49 90.9 24.5 120.3 55.7 120.3 67 0 10.7-24.4 35.8-89.8 57.8-72 24.2-170.1 37.6-276.2 37.6-106.3 0-205-13.4-277.9-37.6-74.5-24.8-91.2-50.7-91.2-57.8 0-5.2 7.3-15.4 23.6-26.5 22.4-15.3 56.5-29.3 98.8-40.5 21.3-5.7 34.1-27.6 28.4-48.9-5.7-21.3-27.6-34.1-48.9-28.4C194.7 654 153.2 671.4 123 692c-48.4 33-58.5 68.6-58.5 92.6 0 38.8 25.3 93.5 146 133.7C291.3 945.2 399 960 513.6 960c114.5 0 221.7-14.8 301.7-41.7 119.3-40.1 144.3-94.8 144.3-133.6-0.1-24.1-10-59.5-57.7-92.5zM673.3 368c0-89-72.4-161.3-161.3-161.3-89 0-161.3 72.4-161.3 161.3S423 529.3 512 529.3c89 0 161.3-72.4 161.3-161.3z m-242.6 0c0-44.8 36.5-81.3 81.3-81.3s81.3 36.5 81.3 81.3-36.5 81.3-81.3 81.3-81.3-36.5-81.3-81.3z"></path>
    <path d="M349.1 645.6c66.8 81.6 132.7 144.1 135.5 146.7 7.7 7.3 17.6 10.9 27.5 10.9 9.9 0 19.8-3.6 27.5-10.9 2.8-2.6 68.6-65.1 135.5-146.7 39.8-48.6 71.6-93.9 94.6-134.7C800.8 455.5 816 408.8 816 368c0-81.2-31.6-157.5-89-214.9S593.2 64 512 64c-81.2 0-157.5 31.6-214.9 89-57.4 57.4-89 133.7-89 214.9 0 40.8 15.2 87.5 46.4 142.9 23 40.9 54.8 86.2 94.6 134.8zM512 144c123.5 0 224 100.5 224 224 0 49.4-43.5 129.8-122.4 226.3-38.2 46.6-76.7 87.4-101.6 112.7-24.8-25.2-63-65.6-101-112-79.3-96.9-123-177.5-123-227 0-123.5 100.5-224 224-224z"></path>
  </symbol>
  <symbol xmlns="http://www.w3.org/2000/svg" viewBox="0 0 10 11" id="phone">
    <path d="M4.27699 2.95043L2.58549 1.10405C2.39049 0.891276 2.03299 0.892222 1.80649 1.10688L0.415494 2.42465C0.00149414 2.81662 -0.117006 3.39867 0.122494 3.86535C1.5533 6.66683 3.94252 8.92936 6.90299 10.2863C7.39599 10.5128 8.01099 10.4008 8.42499 10.0088L9.82899 8.67872C10.0565 8.46359 10.057 8.12362 9.82999 7.93922L7.86999 6.34816C7.66499 6.18173 7.34649 6.20348 7.14099 6.39828L6.45899 7.04416C6.42408 7.07877 6.37812 7.10158 6.32817 7.10909C6.27822 7.11661 6.22704 7.10842 6.18249 7.08577C5.06772 6.47871 4.14299 5.6031 3.50249 4.54811C3.47851 4.50591 3.46982 4.45744 3.47777 4.41012C3.48572 4.36281 3.50986 4.31926 3.54649 4.28617L4.22649 3.64265C4.43249 3.4469 4.45499 3.14429 4.27699 2.94996V2.95043Z"></path>
  </symbol>
  <symbol version="1.1" id="email" xmlns="http://www.w3.org/2000/svg" xmlns:xlink="http://www.w3.org/1999/xlink" x="0px" y="0px" enable-background="new 0 0 64 64" xml:space="preserve" viewBox="0 0 64 64">
    <path id="Mail" d="M58.0034485,8H5.9965506c-3.3136795,0-5.9999995,2.6862001-5.9999995,6v36c0,3.3137016,2.6863203,6,5.9999995,6
	h52.006897c3.3137016,0,6-2.6862984,6-6V14C64.0034485,10.6862001,61.3171501,8,58.0034485,8z M62.0034485,49.1108017
	L43.084549,30.1919994l18.9188995-12.0555992V49.1108017z M5.9965506,10h52.006897c2.2056007,0,4,1.7943001,4,4v1.7664003
	L34.4677505,33.3134003c-1.4902,0.9492989-3.3935013,0.9199982-4.8495998-0.0703011L1.9965508,14.4694996V14
	C1.9965508,11.7943001,3.7910507,10,5.9965506,10z M1.9965508,16.8852005L21.182251,29.9251003L1.9965508,49.1108017V16.8852005z
	 M58.0034485,54H5.9965506c-1.6473999,0-3.0638998-1.0021019-3.6760998-2.4278984l20.5199013-20.5200024l5.6547985,3.843401
	c1.0859013,0.7383003,2.3418007,1.1083984,3.5995998,1.1083984c1.1953011,0,2.3925018-0.3339996,3.4463005-1.0048981
	l5.8423996-3.7230015l20.2961006,20.2961025C61.0673485,52.9978981,59.6508713,54,58.0034485,54z"></path>
    <g></g>
    <g></g>
    <g></g>
    <g></g>
    <g></g>
    <g></g>
    <g></g>
    <g></g>
    <g></g>
    <g></g>
    <g></g>
    <g></g>
    <g></g>
    <g></g>
    <g></g>
  </symbol>
</svg>